<?xml version="1.0" encoding="UTF-8"?>
<svg id="vlpa" width="469.1" height="500" version="1.1" viewBox="0 0 469.1 500" xml:space="preserve" xmlns="http://www.w3.org/2000/svg">
<title>RAL Colours logo</title>
<style type="text/css">
	.st0{fill:#FF5800;}
	.st1{fill:#FFFFFF;}
</style>
<rect class="st0" width="469.1" height="500" style="fill:#ff5001"/>
<g transform="translate(-86.3 -71.4)">
	<path class="st1" d="m207.3 255.9v-34.6h24.8c11.5 0 18.9 6.5 18.9 17.2 0 10.6-7.4 17.4-18.9 17.4zm55.2 47.1s-18.1-36-18.1-36l0.8-0.2c13.2-3.6 21-14.1 21-28 0-18.5-13.2-30.9-32.8-30.9h-33.5c-6.1 0-7.6 4.6-7.7 6.6v0.2 91.6c0 4.2 3.4 7.6 7.6 7.6s7.6-3.4 7.6-7.6v-37.7h20.4l21.8 42.1c1.4 2 3.6 3.3 6.2 3.3 4.2 0 7.6-3.4 7.6-7.6-0.1-1.2-0.4-2.4-0.9-3.4"/>
	<path class="st1" d="m464.5 329h-287.4v-136.7h287.4zm15.2-144.2c0-4.2-3.4-7.6-7.6-7.6h-302.7c-4.1 0.1-7.4 3.4-7.4 7.5v122.9 29c0 4.1 3.3 7.5 7.4 7.6h302.6 0.2c4.2 0 7.6-3.4 7.6-7.6v-151.8z"/>
	<path class="st1" d="m442.5 298.8h-38.6v-84c-0.1-4.1-3.5-7.4-7.7-7.4-4.1 0-7.3 3.2-7.4 7.4v92.2c0.1 6.3 4.9 7 7 7h46.8c4.2 0 7.6-3.4 7.6-7.6-0.1-4.2-3.5-7.6-7.7-7.6"/>
	<path class="st1" d="m312.3 268.5 13.2-39 13.2 39zm54 35.3-33.8-91.3c-1-2.9-3.7-4.9-6.7-5.1h-0.7c-3 0.1-5.7 2.1-6.7 5.1l-33.8 91.3c-0.3 0.9-0.5 1.7-0.5 2.6 0 4.1 3.4 7.5 7.5 7.5 3.2 0 6-2 7-5l9.3-27.7h34.9l9.4 27.7c1.1 3 3.9 5 7 5 4.1 0 7.5-3.4 7.5-7.5 0.1-0.8-0.1-1.7-0.4-2.6"/>
	<path class="st1" d="m227.1 404.9c-3.1 0-5.8-1.1-7.8-3.2-2.9-2.9-2.9-6.2-2.9-11.9s0-9 2.9-11.9c2-2 4.7-3.2 7.8-3.2 5.5 0 9.6 3.2 10.6 9.1h-4.6c-0.7-3-2.7-5.1-6-5.1-1.8 0-3.3 0.7-4.4 1.8-1.5 1.6-1.8 3.3-1.8 9.3s0.3 7.7 1.8 9.3c1 1.1 2.6 1.8 4.4 1.8 3.3 0 5.3-2.1 6.1-5.1h4.5c-1 5.9-5.3 9.1-10.6 9.1"/>
	<path class="st1" d="m262.6 380.6c-1-1.1-2.7-1.8-4.4-1.8s-3.4 0.7-4.4 1.8c-1.5 1.6-1.8 3.3-1.8 9.2 0 6 0.3 7.6 1.8 9.2 1 1.1 2.7 1.8 4.4 1.8s3.4-0.7 4.4-1.8c1.5-1.6 1.8-3.3 1.8-9.2 0-6-0.3-7.6-1.8-9.2m3.5 21.1c-2 2-4.7 3.2-7.8 3.2s-5.8-1.1-7.8-3.2c-2.9-2.9-2.9-6.2-2.9-11.9s0-9 2.9-11.9c2-2 4.6-3.2 7.8-3.2s5.8 1.1 7.8 3.2c2.9 2.9 2.8 6.2 2.8 11.9s0.1 9-2.8 11.9"/>
</g>
<polygon class="st1" transform="translate(-86.3 -71.4)" points="285.1 374.9 285.1 400.6 299.4 400.6 299.4 404.7 280.6 404.7 280.6 374.9"/>
<g transform="translate(-86.3 -71.4)">
	<path class="st1" d="m323.5 380.6c-1-1.1-2.7-1.8-4.4-1.8-1.8 0-3.4 0.7-4.4 1.8-1.5 1.6-1.8 3.3-1.8 9.2 0 6 0.3 7.6 1.8 9.2 1 1.1 2.7 1.8 4.4 1.8 1.8 0 3.4-0.7 4.4-1.8 1.5-1.6 1.8-3.3 1.8-9.2-0.1-6-0.3-7.6-1.8-9.2m3.4 21.1c-2 2-4.7 3.2-7.8 3.2s-5.8-1.1-7.8-3.2c-2.9-2.9-2.9-6.2-2.9-11.9s0-9 2.9-11.9c2-2 4.6-3.2 7.8-3.2s5.8 1.1 7.8 3.2c2.9 2.9 2.8 6.2 2.8 11.9 0.1 5.7 0.1 9-2.8 11.9"/>
	<path class="st1" d="m351.6 404.9c-6.1 0-10.6-4.1-10.6-10.3v-19.6h4.5v19.5c0 4 2.4 6.4 6.1 6.4s6.2-2.5 6.2-6.4v-19.5h4.5v19.7c0 6.1-4.7 10.2-10.7 10.2"/>
	<path class="st1" d="m385.7 379h-6.7v9.3h6.7c3 0 5.1-1.7 5.1-4.6s-2.1-4.7-5.1-4.7m5.2 25.7-6.3-12.5h-5.6v12.5h-4.5v-29.7h11.5c5.6 0 9.2 3.6 9.2 8.7 0 4.3-2.6 7-5.9 7.9l6.8 13.1z"/>
	<path class="st1" d="m414.7 404.9c-4.5 0-7.7-1-10.5-3.9l3-3c2.2 2.2 4.5 2.8 7.6 2.8 3.9 0 6.1-1.7 6.1-4.5 0-1.3-0.4-2.4-1.2-3.1s-1.5-1-3.3-1.2l-3.5-0.5c-2.4-0.3-4.3-1.2-5.6-2.4-1.5-1.4-2.2-3.3-2.2-5.7 0-5.2 3.8-8.7 9.9-8.7 3.9 0 6.7 1 9.2 3.4l-2.9 2.8c-1.8-1.8-4-2.3-6.5-2.3-3.5 0-5.4 2-5.4 4.6 0 1.1 0.3 2 1.1 2.8 0.8 0.7 2 1.2 3.3 1.4l3.4 0.5c2.8 0.4 4.3 1.1 5.6 2.2 1.6 1.4 2.4 3.5 2.4 6.1 0.2 5.5-4.3 8.7-10.5 8.7"/>
</g>
</svg>
